{"title":"Salt In The Wound (1969)","uid":8040957,"size":1560295957,"categoryP":"video","categoryS":"movies","magnet":"?xt=urn:btih:3887a360b7192b9d03ada07913ce937f91f8b4b5&amp;dn=Salt+In+The+Wound+%281969%29&amp;tr=udp%3A%2F%2Ftracker.openbittorrent.com%3A80&amp;tr=udp%3A%2F%2Fopen.demonii.com%3A1337&amp;tr=udp%3A%2F%2Ftracker.coppersurfer.tk%3A6969&amp;tr=udp%3A%2F%2Fexodus.desync.com%3A6969","seeders":1,"leechers":0,"uploader":"RadioResearch","files":3,"time":1358628130,"description":"SEEDBOX SUPPORTED!!\n\n*******************************************************************************\n                               Salt In The Wound\n*******************************************************************************\n\n-------------------------------------------------------------------------------\n                              General Information\n-------------------------------------------------------------------------------\nType.................: Movie\nPlatform.............: AVI AC3\n\n\n\nVideo Format.........: AVI\nVideo Bitrate........: 1996\nResolution...........: 20 x 540 (4:3)\nColor................: 8 bit\nFPS..................: 29.97\nSource...............: DVD 4x3\nOriginal Format......: NTSC\nGenre................: War\nIMDb Rating..........: 5.9\nMovie Information....: http://www.imdb.com/title/tt0064237\n\n-------------------------------------------------------------------------------\n                               Post Information\n-------------------------------------------------------------------------------\nPosted by............: RadioResearch\nPosted on............: 1/19/2013\n\n-------------------------------------------------------------------------------\n                                 Release Notes\n-------------------------------------------------------------------------------\nAnother obscure Klaus Kinski WWII spaghetti combat flick, where two condemned \nGIs (Kinski and Rai Saunders) on their way to execution and a fredh-from-West \nPoint officer (George Hilton) in command of the execution detail survive a Nazi \nambush and make their way to a desolate Italian village that lies in the path of \nthe German advance.  There they learn the meaning of courage and self-sacrifice \nwhen they become emotionally involved in the fortune's of the town's people and \nmust defend them from the bloodthirsty invaders.\n\n\n\n-------------------------------------------------------------------------------\nGenerated with Cool NFO Creator - http://fly.to/coolbeans\n-------------------------------------------------------------------------------\nGeneral\nComplete name                            : G:AVISalt In The Wound (1969)Salt_In_The_Wound_(1969).avi\nFormat                                   : AVI\nFormat/Info                              : Audio Video Interleave\nFormat profile                           : OpenDML\nFile size                                : 1.45 GiB\nDuration                                 : 1h 32mn\nOverall bit rate                         : 2 259 Kbps\nMovie name                               : UNDEFINED\nWriting application                      : MEncoder 5.0\nWriting library                          : [= DigiArty videodll! =]\nID                                       : 0\nFormat                                   : MPEG-4 Visual\nFormat profile                           : Simple@L1\nFormat settings, BVOP                    : No\nFormat settings, QPel                    : No\nFormat settings, GMC                     : No warppoints\nFormat settings, Matrix                  : Default (H.263)\nCodec ID                                 : DX50\nCodec ID/Hint                            : DivX 5\nDuration                                 : 1h 32mn\nBit rate                                 : 1 996 Kbps\nWidth                                    : 720 pixels\nHeight                                   : 540 pixels\nDisplay aspect ratio                     : 4:3\nFrame rate                               : 29.970 fps\nColor space                              : YUV\nChroma subsampling                       : 4:2:0\nBit depth                                : 8 bits\nScan type                                : Progressive\nCompression mode                         : Lossy\nBits/(Pixel*Frame)                       : 0.171\nStream size                              : 1.28 GiB (88%)\nWriting library                          : Lavc54.71.100\n\nAudio\nID                                       : 1\nFormat                                   : AC-3\nFormat/Info                              : Audio Coding 3\nMode extension                           : CM (complete main)\nFormat settings, Endianness              : Big\nCodec ID                                 : 2000\nDuration                                 : 1h 32mn\nBit rate mode                            : Constant\nBit rate                                 : 256 Kbps\nChannel(s)                               : 2 channels\nChannel positions                        : Front: L R\nSampling rate                            : 48.0 KHz\nBit depth                                : 16 bits\nCompression mode                         : Lossy\nStream size                              : 169 MiB (11%)\nAlignment                                : Split accross interleaves\nInterleave, duration                     : 500 ms (14.98 video frames)\nInterleave, preload duration             : 500 ms\n\n","torrent":{"xt":"urn:btih:3887a360b7192b9d03ada07913ce937f91f8b4b5","amp;dn":"Salt+In+The+Wound+%281969%29","amp;tr":["udp%3A%2F%2Ftracker.openbittorrent.com%3A80","udp%3A%2F%2Fopen.demonii.com%3A1337","udp%3A%2F%2Ftracker.coppersurfer.tk%3A6969","udp%3A%2F%2Fexodus.desync.com%3A6969"],"infoHash":"3887a360b7192b9d03ada07913ce937f91f8b4b5","infoHashBuffer":{"type":"Buffer","data":[56,135,163,96,183,25,43,157,3,173,160,121,19,206,147,127,145,248,180,181]},"announce":[],"urlList":[]}}